<?xml version="1.0" encoding="utf-8"?>
<!-- Generator: Adobe Illustrator 21.1.0, SVG Export Plug-In . SVG Version: 6.00 Build 0)  -->
<svg version="1.1" id="Слой_1" xmlns="http://www.w3.org/2000/svg" xmlns:xlink="http://www.w3.org/1999/xlink" x="0px" y="0px"
	 viewBox="0 0 338 157" style="enable-background:new 0 0 338 157;" xml:space="preserve">
<style type="text/css">
	.st0{fill:#222538;}
	.st1{fill:#FFFFFF;}
	.st2{fill:#975153;}
	.st3{fill:none;stroke:#975153;stroke-width:10;stroke-miterlimit:10;}
	.st4{fill:none;stroke:#975153;stroke-width:4;stroke-miterlimit:10;}
</style>
<rect x="4181" y="282" class="st0" width="1081" height="1081"/>
<g>
	<path class="st1" d="M30.5,4.8c3.2,0,4.9,1.6,4.9,4.9v63.6c0,12.5,0.8,20.1,12.8,20.1S61,85.7,61,73.2V9.6c0-3.2,1.8-4.9,4.9-4.9
		h18.2c3.2,0,4.9,1.6,4.9,4.9v72.2c0,10.7-2.3,39.4-40.7,39.4c-38.4,0-40.7-28.7-40.7-39.4V9.6c0-3.2,1.8-4.9,4.9-4.9H30.5z"/>
	<path class="st2" d="M224.2,4.8c3.2,0,4.9,1.6,4.9,4.9v103.8c0,3.1-1.6,4.9-4.9,4.9h-17.8c-3.1,0-4.9-1.8-4.9-4.9V9.6
		c0-3.2,1.8-4.9,4.9-4.9H224.2z"/>
	<path class="st1" d="M317.6,125.1c-2.3,2.3-4.5,2.3-6.8,0l-6.2-6.2c-0.6-0.6-1.3-0.8-2.3-0.5c-4.9,1.8-10.9,2.8-18,2.8
		c-38.4,0-40.7-28.7-40.7-39.4V41.3c0-10.7,2.3-39.4,40.7-39.4s40.7,28.7,40.7,39.4v40.6c0,3.2-0.3,8.4-1.8,13.8
		c-0.2,1,0,1.6,0.5,2.3l7.3,7.8c2.1,2.3,1.9,4.7-0.3,7L317.6,125.1z M271.5,73.2c0,12.5,0.8,20.1,12.8,20.1s12.8-7.6,12.8-20.1V49.9
		c0-12.5-0.8-20.1-12.8-20.1s-12.8,7.6-12.8,20.1V73.2z"/>
</g>
<circle class="st2" cx="215" cy="140" r="13.5"/>
<g>
	<path class="st1" d="M129.9,4.6c2.8,0,4.5,1.1,5.7,3.7l22.1,54c0.6,1.5,1.9,1.1,1.9-0.5V9.4c0-3.2,1.8-4.9,4.9-4.9h18.2
		c3.2,0,4.9,1.6,4.9,4.9v103.8c0,3.1-1.6,4.9-4.9,4.9h-23.8c-2.8,0-4.5-1.1-5.7-3.7l-22.1-54c-0.6-1.5-1.9-1.1-1.9,0.5v52.4
		c0,3.1-1.6,4.9-4.9,4.9h-18.2c-3.1,0-4.9-1.8-4.9-4.9V9.4c0-3.2,1.8-4.9,4.9-4.9H129.9z"/>
</g>
<rect x="1040" y="-477" class="st0" width="1087" height="1079"/>
<g>
	<text transform="matrix(1 0 0 1 1383 116)" class="st1" style="font-family:'Vision-Heavy'; font-size:172px;">UN Q</text>
	<rect x="1614" y="28" class="st2" width="15" height="88"/>
	<circle class="st3" cx="1621.5" cy="20.5" r="12"/>
	<rect x="1627.5" y="106" class="st2" width="18.5" height="10"/>
	<rect x="1624.5" y="83" class="st2" width="16.5" height="7"/>
	<rect x="1619.5" y="96" class="st2" width="17.4" height="6"/>
</g>
<polygon class="st0" points="1648,82 1653,92 1653,82 "/>
<polygon class="st0" points="1652,105 1657.5,116 1657.5,105 "/>
<polygon class="st0" points="1643.7,94 1649,104 1649,94 "/>
<rect x="-361" y="893" class="st0" width="1080" height="1080"/>
<g>
	<text transform="matrix(1 0 0 1 -15.5 1484.1699)" class="st1" style="font-family:'Roboto-Light'; font-size:166.4027px;">UNI</text>
	<g>
		<g>
			<g>
				<path class="st2" d="M316.3,1482.2c-12,0-23.1-1.7-32.6-9.8c-9.4-8.1-14.4-19.7-14.4-32c0-8.1,0-16.2,0-24.3
					c0-8.9-0.3-17.6,3.4-26c10.5-24.2,43.5-32.3,65.4-18.5c12,7.5,19.1,20.7,19.2,34.7c0.1,7.1,0,14.2,0,21.4
					c0,9.7,0.8,19.6-2.9,28.8C348.1,1471.9,332.9,1481.9,316.3,1482.2c-2.6,0-2.6,4,0,4c14.6-0.2,28.2-7.1,36.7-19.1
					c6.6-9.2,8.3-19.5,8.3-30.5c0-21.3,3.5-45-12.8-61.7c-18.4-19-53.5-18.6-71.4,0.9c-15.4,16.8-11.9,40.4-11.9,61.4
					c0,13.2,3.3,25.5,12.8,35.2c10.5,10.8,23.8,13.7,38.3,13.7C318.9,1486.2,318.9,1482.2,316.3,1482.2z"/>
			</g>
		</g>
		<g>
			<g>
				<path class="st2" d="M296.6,1376.7c9.8-5.4,21.2-6,31.6-1.9c2.4,0.9,3.4-2.9,1.1-3.9c-11.4-4.5-24-3.5-34.7,2.3
					C292.3,1374.5,294.4,1378,296.6,1376.7L296.6,1376.7z"/>
			</g>
		</g>
		<g>
			<g>
				<path class="st2" d="M333.7,1378.3c7.1,4.6,11.7,11.9,13,20.2c0.4,2.5,4.2,1.5,3.9-1.1c-1.5-9.4-6.9-17.5-14.8-22.6
					C333.5,1373.5,331.5,1377,333.7,1378.3L333.7,1378.3z"/>
			</g>
		</g>
		<g>
			<g>
				<path class="st2" d="M330.5,1471.2c-9.2,4.6-19.7,5.2-29.5,1.9c-2.4-0.8-3.5,3-1.1,3.9c10.8,3.6,22.4,2.7,32.6-2.3
					C334.8,1473.5,332.8,1470.1,330.5,1471.2L330.5,1471.2z"/>
			</g>
		</g>
		<g>
			<g>
				<path class="st2" d="M347.7,1408.7c0,8.3,0,16.5,0,24.8c0,11.7,0.4,22.8-9,31.6c-1.9,1.8,0.9,4.6,2.8,2.8
					c5.9-5.5,9.6-13,10.2-21c0.3-3.6,0-7.3,0-10.8c0-9.1,0-18.2,0-27.3C351.7,1406.1,347.7,1406.1,347.7,1408.7L347.7,1408.7z"/>
			</g>
		</g>
		<g>
			<g>
				<path class="st2" d="M278.9,1413c0-3.6-0.2-7.3,0-10.9c0.5-7.5,4.9-14.6,10.1-19.8c1.8-1.8-1-4.6-2.8-2.8
					c-5.7,5.6-10.6,13.6-11.3,21.7c-0.3,3.9,0,7.9,0,11.8C274.9,1415.6,278.9,1415.6,278.9,1413L278.9,1413z"/>
			</g>
		</g>
		<g>
			<g>
				<path class="st2" d="M274.9,1418.4c0,7.7,0,15.4,0,23.1c0,11.7,7.2,23,15.6,30.7c1.9,1.8,4.7-1.1,2.8-2.8
					c-6.3-5.8-11-13-13.5-21.2c-1-3.1-0.9-5.7-0.9-9c0-6.9,0-13.9,0-20.8C278.9,1415.8,274.9,1415.8,274.9,1418.4L274.9,1418.4z"/>
			</g>
		</g>
		<g>
			<g>
				<path class="st2" d="M297.2,1384.8c13.1-7.7,29.8-4.6,39.3,7.2c1.6,2,4.4-0.8,2.8-2.8c-10.6-13.1-29.7-16.4-44.2-7.8
					C292.9,1382.6,294.9,1386.1,297.2,1384.8L297.2,1384.8z"/>
			</g>
		</g>
		<g>
			<g>
				<path class="st2" d="M286.9,1457.9c10,14.9,30.9,18.9,45.5,8.2c2.1-1.5,0.1-5-2-3.5c-12.8,9.3-31.2,6.4-40.1-6.8
					C288.9,1453.7,285.5,1455.7,286.9,1457.9L286.9,1457.9z"/>
			</g>
		</g>
		<g>
			<g>
				<path class="st2" d="M285.7,1396.4c-5.9,16.4-3.9,33.8-2.2,50.8c0.3,2.5,4.3,2.6,4,0c-1.7-16.8-3.7-33.8,2.1-49.8
					C290.4,1395.1,286.5,1394,285.7,1396.4L285.7,1396.4z"/>
			</g>
		</g>
		<g>
			<g>
				<path class="st2" d="M338.1,1409.3c3.2,12.6,4,25.6,2.1,38.5c-0.4,2.5,3.5,3.6,3.9,1.1c2-13.6,1.3-27.3-2.1-40.7
					C341.3,1405.7,337.5,1406.8,338.1,1409.3L338.1,1409.3z"/>
			</g>
		</g>
		<path class="st4" d="M340,1477c24.3,6.6,31.1,7.3,31.5,6.2c0.5-1.4-8.7-4.2-13.2-13.2c-2.1-4.3-2.5-8.7-2.3-12"/>
	</g>
</g>
</svg>
